<svg id="Account_Details" data-name="Account Details" xmlns="http://www.w3.org/2000/svg" width="519.589" height="305.542" viewBox="0 0 519.589 305.542">
  <path id="Path_117" data-name="Path 117" d="M1748.917,1381.76s-122.165-76.737-38.676-159,195.218-166.365,270.113-133.829,68.159,73.667,150.421,133.215,63.231,106.818,48.5,130.759-17.189,30.081-17.189,30.081Z" transform="translate(-1681.054 -1081.764)" fill="#234de8"/>
  <path id="Path_118" data-name="Path 118" d="M2022.471,1263.978c18.09-16.112,31.375-6.5,41.268,4.24,7.886,8.562,8.986,10.46,15.5,19.33a7.786,7.786,0,0,1,1.741,4.413c.183,9.806,5.2,51.269-.377,65.577-6.5,16.677-86.682,24.308-86.682,24.308Z" transform="translate(-1861.297 -1181.797)" fill="#303c60"/>
  <g id="Group_41" data-name="Group 41" transform="translate(211.697 107.641)">
    <path id="Path_119" data-name="Path 119" d="M2181.281,1413.287a.826.826,0,0,1-.041-1.652,7.684,7.684,0,0,0,5.92-3.27c8.99-11.648,3.936-50.536-.469-71.677a.826.826,0,0,1,1.618-.337,283.478,283.478,0,0,1,5.182,38.079c1.032,17.534-.658,29.292-5.022,34.945a9.367,9.367,0,0,1-7.145,3.911Z" transform="translate(-2180.456 -1335.693)" fill="#303c60"/>
  </g>
  <path id="Path_120" data-name="Path 120" d="M1953.6,1264.3c-34.767,19.221-13.567,84.232-57.662,107.41-12.216,6.421-49.748,39.006-25.157,81.971,16.086,28.1,64.164,22.047,79.992-2.826S1953.6,1264.3,1953.6,1264.3Z" transform="translate(-1785.643 -1186.919)" fill="#303c60"/>
  <g id="Group_42" data-name="Group 42" transform="translate(74.608 101.706)">
    <path id="Path_121" data-name="Path 121" d="M1857.885,1445.169a.825.825,0,0,1-.82-.935,47.563,47.563,0,0,1,4.255-12.955,56.827,56.827,0,0,1,20.806-23.436c20.4-12.984,33.947-25.219,49.958-85.537a.826.826,0,0,1,1.6.424c-7.738,29.147-15.41,48.85-24.144,62.009-8.11,12.219-16.456,18.091-26.524,24.5a54.324,54.324,0,0,0-24.31,35.215A.827.827,0,0,1,1857.885,1445.169Z" transform="translate(-1857.057 -1321.691)" fill="#303c60"/>
  </g>
  <g id="Group_43" data-name="Group 43" transform="translate(75.37 96.9)">
    <path id="Path_122" data-name="Path 122" d="M1859.68,1421.8a.827.827,0,0,1-.7-1.267,62.972,62.972,0,0,1,19.086-19.456c28.652-18.529,33.393-29.182,57.058-90.2a.826.826,0,1,1,1.541.6c-11.831,30.506-18.9,48.382-26.637,61.052-8.307,13.606-17.681,21.28-31.064,29.935a61.332,61.332,0,0,0-18.586,18.951A.826.826,0,0,1,1859.68,1421.8Z" transform="translate(-1858.854 -1310.355)" fill="#303c60"/>
  </g>
  <path id="Path_123" data-name="Path 123" d="M2060.536,1360c-11.97,24.861-10.129,47.42-10.129,47.42s1.381,8.748,6.906,10.589,13.351-3.684,12.891-11.05,1.842-25.321,4.6-31.767S2060.536,1360,2060.536,1360Z" transform="translate(-1893.779 -1242.056)" fill="#f09959"/>
  <path id="Path_124" data-name="Path 124" d="M1925.241,1742.923c.754,6.784-.942,6.219,5.088,7.349s16.771-3.015,16.771-3.015l-12.06-22.424Z" transform="translate(-1821.73 -1452.234)" fill="#6791c9"/>
  <path id="Path_125" data-name="Path 125" d="M1977.9,1440.371c-3.391,11.023-28.829,2.544-37.732,5.088s-16.535,39.853-17.807,73.346.424,60.2,3.816,64.443,59.356,5.935,64.443,4.24-42.4-22.894-42.4-22.894-2.968-39.005.848-58.931,38.157-46.213,38.157-46.213Z" transform="translate(-1819.826 -1288.356)" fill="#f09959"/>
  <path id="Path_126" data-name="Path 126" d="M2078.5,1448.373c8.9,13.567,32.221,11.871,40.277,22.894s25.014,71.65,25.014,71.65l17.807-61.475s14.441-2.426,9.751,7.631c-8.34,17.886-11.45,75.6-20.495,83.793-10.059,9.115-20.069,1.7-25.717-14.263-5.464-15.438-19.079-48.756-28.83-61.475s-20.351-33.07-20.351-33.07Z" transform="translate(-1908.556 -1292.966)" fill="#f09959"/>
  <path id="Path_127" data-name="Path 127" d="M1948.139,1449.992c17.807,20.775,52.572,19.926,60.2,17.383l7.631-2.544s5.935-2.12,11.023,3.816,17.383,43.245,19.5,51.724,5.511,22.47,5.511,22.47-9.1,10.918-9.1,21.941,3.863,11.118,3.863,11.118-11.3-2.533-13.845-9.317-25.438-68.259-25.438-68.259l-63.171,1.272.848,69.53s-5.511-5.088-13.143,0-10.175,16.959-8.9,18.654-2.544,1.7-2.544.424-7.207-32.222-2.12-83.1,14.838-56.387,20.351-56.811A17.9,17.9,0,0,1,1948.139,1449.992Z" transform="translate(-1816.777 -1292.89)" fill="#75a1de"/>
  <g id="Group_44" data-name="Group 44" transform="translate(196.549 192.135)">
    <path id="Path_128" data-name="Path 128" d="M2217.53,1747.322a.667.667,0,0,0,.189.041S2217.65,1747.349,2217.53,1747.322Z" transform="translate(-2186.666 -1657.326)" fill="#6791c9"/>
    <path id="Path_129" data-name="Path 129" d="M2178.031,1594.375c-3.675,1.131-9.893,14.133-9.893,14.133s-14.133-30.81-18.373-73.491l-5.045,28.955c6.964,18.7,17.895,48.037,19.607,52.6,2.327,6.205,11.711,8.794,13,9.081-.352-.119-1.129-.589-1.773-2.451-.371-.338-2.494-1.331-2.891-1.695-3.392-3.109-1.978-10.458.283-18.655S2181.706,1593.244,2178.031,1594.375Z" transform="translate(-2144.72 -1535.017)" fill="#6791c9"/>
  </g>
  <path id="Path_130" data-name="Path 130" d="M1970,1525.709l-7.007-32.035c-7.632,10.742-8.48,47.487-5.371,72.643,2.55,20.631,6.365,25.985,8.985,28.136a7.633,7.633,0,0,1,1.2.848l-.848-69.531Z" transform="translate(-1839.41 -1319.064)" fill="#6791c9"/>
  <path id="Path_131" data-name="Path 131" d="M1941.244,1493.008c13,35.05,6.5,42.116,23.611,83.254,9.556,22.977,27.982,40.277,27.982,40.277a117.066,117.066,0,0,0,33.494,2.543c18.655-1.272,32.312-2.554,32.312-2.554s-19.593-11.861-20.441-19.917-4.528-40.007.277-62.62c3.753-17.658-11.724-35.316-11.724-35.316l-25.862-1.272Z" transform="translate(-1830.949 -1318.681)" fill="#75a1de"/>
  <path id="Path_132" data-name="Path 132" d="M1994.883,1615.564c-2.261-8.2,9.61,2.544,29.113,4.523s41.269-1.131,30.528,2.261-40.138-1.7-34.767,9.045c6.32,12.641,13.783,24.874,24.59,32.223,7.067,4.805,24.026,9.327,7.632,6.784s-33.919-21.765-41.551-34.2S1995.386,1617.392,1994.883,1615.564Z" transform="translate(-1861.692 -1387.532)" fill="#6791c9" opacity="0.5"/>
  <path id="Path_133" data-name="Path 133" d="M2079.454,1406.023c.172-8.461,2.235-22.9,4.651-28.54,1.979-4.618-6.2-10.417-11-13.335l-4.059-.174q-.928,2.021-1.74,4.016c-4.286,28.139,8.54,39.767,14.66,42.107a18.509,18.509,0,0,0,8.13.894A49.3,49.3,0,0,1,2079.454,1406.023Z" transform="translate(-1903.077 -1244.345)" fill="#e38540"/>
  <g id="Group_45" data-name="Group 45" transform="translate(150.153 157.182)">
    <path id="Path_134" data-name="Path 134" d="M2053.729,1469.569a19.118,19.118,0,0,1-4.513-.546c-3.537-.863-11.977-4.14-13.939-15.915a.468.468,0,1,1,.924-.155c1.871,11.225,9.88,14.341,13.237,15.16,5.216,1.271,10.749.094,12.873-2.738,1.7-2.271.681-7.108.671-7.157a.468.468,0,1,1,.915-.2c.047.215,1.124,5.3-.837,7.918C2061.323,1468.252,2057.739,1469.569,2053.729,1469.569Z" transform="translate(-2035.27 -1452.561)" fill="#f5ce5c"/>
  </g>
  <path id="Path_135" data-name="Path 135" d="M2116.926,1342.719c-2.875,15.186-9.518,27.437-20.758,25.129s-23.057-18.35-19.947-33.49,14.744-25.542,25.984-23.233S2120.758,1322.483,2116.926,1342.719Z" transform="translate(-1908.418 -1213.713)" fill="#f09959"/>
  <path id="Path_136" data-name="Path 136" d="M2237.361,1563.022s-20.775,55.825-21.764,61.62.989,9.469,1.555,9.469,18.231-30.245,18.231-30.245Z" transform="translate(-1988.846 -1359.016)" fill="#f09959"/>
  <path id="Path_137" data-name="Path 137" d="M2268.03,1539.829c1.7-5.653-.942-12.814-.942-12.814l7.538.942Z" transform="translate(-2018.667 -1338.272)" fill="#f09959"/>
  <g id="Group_46" data-name="Group 46" transform="translate(234.704 143.582)">
    <path id="Path_138" data-name="Path 138" d="M2257.671,1468.81h-21.032a1.908,1.908,0,0,1-1.828-2.453l13.277-44.516a1.909,1.909,0,0,1,1.829-1.362h21.032a1.908,1.908,0,0,1,1.828,2.453l-13.277,44.516A1.907,1.907,0,0,1,2257.671,1468.81Z" transform="translate(-2234.73 -1420.478)" fill="#4381db"/>
    <path id="Path_139" data-name="Path 139" d="M2263.895,1468.81h-21.031a1.908,1.908,0,0,1-1.829-2.453l13.277-44.516a1.907,1.907,0,0,1,1.828-1.362h21.032a1.908,1.908,0,0,1,1.828,2.453l-13.277,44.516A1.907,1.907,0,0,1,2263.895,1468.81Z" transform="translate(-2238.315 -1420.478)" fill="#2e5b9a"/>
    <path id="Path_140" data-name="Path 140" d="M2254.489,1438.755c-2.242,8.079-3.751,14.714-3.371,14.82s2.507-6.358,4.749-14.437,3.751-14.714,3.371-14.819S2256.731,1430.676,2254.489,1438.755Z" transform="translate(-2244.137 -1422.69)" fill="#9cbeed"/>
  </g>
  <path id="Path_141" data-name="Path 141" d="M2282.67,1498.374c.622-7.341,6.98-14.222,9.4-16.418a3.475,3.475,0,0,0,1.142-2.607c-.035-3.659-.2-12.3-.954-13.307-.963-1.284-3.372-17.824-4.5-17.182s.321,15.094.321,15.094-2.73-1.284-4.175-1.927-7.387,5.942-7.387,5.942-2.786,7.038,4.831,4.024c9.045-3.581,2.261,6.407-3.769,12.814-4.969,5.279-.74,6.447-.74,6.447l4.014-.16Z" transform="translate(-2023.32 -1293.237)" fill="#f09959"/>
  <g id="Group_47" data-name="Group 47" transform="translate(248.612 201.136)">
    <path id="Path_142" data-name="Path 142" d="M2276,1566.027a7.424,7.424,0,0,1-2.181-.34c-1.956-.61-5.372-2.577-6.275-8.9a.468.468,0,0,1,.927-.133c.773,5.409,3.4,7.383,5.459,8.087a5.1,5.1,0,0,0,3.436.114.469.469,0,0,1,.9-.11.66.66,0,0,1-.149.7A3.1,3.1,0,0,1,2276,1566.027Z" transform="translate(-2267.539 -1556.249)" fill="#f5ce5c"/>
  </g>
  <g id="Group_48" data-name="Group 48" transform="translate(247.693 203.326)">
    <path id="Path_143" data-name="Path 143" d="M2273.962,1567.186a13.339,13.339,0,0,1-1.9-.137c-3.635-.528-6.071-2.372-6.683-5.059a.469.469,0,1,1,.914-.209c.584,2.565,2.916,3.655,4.768,4.118,2.6.649,5.037.249,5.329-.088a.46.46,0,0,1,.634-.172.475.475,0,0,1,.175.645C2276.852,1566.9,2275.488,1567.186,2273.962,1567.186Z" transform="translate(-2265.371 -1561.417)" fill="#f5ce5c"/>
  </g>
  <g id="Group_49" data-name="Group 49" transform="translate(189.837 117.8)">
    <path id="Path_144" data-name="Path 144" d="M2134.658,1378.765a4.61,4.61,0,0,1-.692-.052c-3.567-.546-5.721-5.148-4.905-10.476a12.513,12.513,0,0,1,2.76-6.312,5.636,5.636,0,0,1,5.056-2.215c3.567.546,5.721,5.148,4.905,10.476C2141.018,1375.167,2137.967,1378.765,2134.658,1378.765Zm1.541-17.455a4.327,4.327,0,0,0-3.137,1.7,10.853,10.853,0,0,0-2.369,5.473c-.653,4.265.96,8.2,3.522,8.592s5.279-2.88,5.932-7.145-.96-8.2-3.522-8.592A2.845,2.845,0,0,0,2136.2,1361.31Z" transform="translate(-2128.888 -1359.657)" fill="#fff"/>
  </g>
  <g id="Group_50" data-name="Group 50" transform="translate(203.941 120.142)">
    <path id="Path_145" data-name="Path 145" d="M2165.583,1381.971a2.234,2.234,0,0,1-.339-.025c-2.335-.358-3.6-4.314-2.883-9.006s3.116-8.1,5.446-7.731c1.2.184,2.151,1.285,2.667,3.1a14.314,14.314,0,0,1,.217,5.905C2170.006,1378.679,2167.806,1381.971,2165.583,1381.971Zm1.88-15.539c-1.376,0-3.247,2.647-3.868,6.7-.643,4.2.452,7.37,1.838,7.582s3.378-2.481,4.022-6.685a13.083,13.083,0,0,0-.182-5.375c-.37-1.3-.973-2.1-1.655-2.208A1.068,1.068,0,0,0,2167.462,1366.431Z" transform="translate(-2162.159 -1365.181)" fill="#fff"/>
  </g>
  <g id="Group_51" data-name="Group 51" transform="translate(163.174 113.294)">
    <path id="Path_146" data-name="Path 146" d="M2094.515,1358.6a.832.832,0,0,1-.227-.032l-27.7-7.914a.826.826,0,0,1,.454-1.589l27.7,7.915a.826.826,0,0,1-.226,1.621Z" transform="translate(-2065.988 -1349.029)" fill="#fff"/>
  </g>
  <path id="Path_147" data-name="Path 147" d="M2118.5,1309.464c-42.87,25.251-45.225,8.291-45.225,8.291l2.543-24.12,25.439,1.413Z" transform="translate(-1907.01 -1203.822)" fill="#303c60"/>
  <path id="Path_148" data-name="Path 148" d="M2067.474,1354.676c1,4.268-.364,8.236-3.042,8.861s-5.657-2.327-6.654-6.6.365-8.236,3.042-8.862S2066.478,1350.408,2067.474,1354.676Z" transform="translate(-1897.896 -1235.14)" fill="#f09959"/>
  <path id="Path_149" data-name="Path 149" d="M2069.578,1374.686a1.688,1.688,0,1,1-1.688-1.688A1.688,1.688,0,0,1,2069.578,1374.686Z" transform="translate(-1902.937 -1249.543)" fill="#f5ce5c"/>
  <path id="Path_150" data-name="Path 150" d="M2266.208,1791.868H1837.376a3.93,3.93,0,1,1,0-7.86h428.832a3.93,3.93,0,0,1,0,7.86Z" transform="translate(-1768.847 -1486.325)" fill="#2e5b9a"/>
  <path id="Path_151" data-name="Path 151" d="M2060.226,1782.224s-16.166.2-16.37,1.637.614,2.046,6.343,3.07,70.189,1.432,70.8,1.023,19.44-4.911,19.44-4.911l-45.223-.818Z" transform="translate(-1890.048 -1485.297)" fill="#dbe5eb"/>
  <path id="Path_152" data-name="Path 152" d="M2103.277,1752.21s11.589-5.088,14.981-2.827,13.19,12.626,13.19,12.626Z" transform="translate(-1924.296 -1466.044)" fill="#f09959"/>
  <path id="Path_153" data-name="Path 153" d="M2132.757,1753.413c-.221.276-.549.391-.734.253l-23.846-17.753c-1.284-.956-1.9-2.419-1.278-3.191s2.178-.5,3.393.547l22.551,19.372C2133.018,1752.791,2132.978,1753.137,2132.757,1753.413Z" transform="translate(-1926.243 -1456.525)" fill="#2e5b9a"/>
  <path id="Path_154" data-name="Path 154" d="M2013.68,1751.727s19.221,7.631,21.483,7.631,14.886-8.479,19.126-7.349,24.968,11.589,24.4,12.436-6.5,2.827-24.026,2.262-46.073-3.109-46.073-3.109Z" transform="translate(-1869.748 -1467.728)" fill="#f09959"/>
  <path id="Rectangle_7" data-name="Rectangle 7" d="M3.3,0H77.45a8.288,8.288,0,0,1,8.288,8.288v0a8.287,8.287,0,0,1-8.287,8.287H3.3a3.3,3.3,0,0,1-3.3-3.3V3.3A3.3,3.3,0,0,1,3.3,0Z" transform="translate(304.007 281.435)" fill="#f37168"/>
  <path id="Path_155" data-name="Path 155" d="M2471.5,1752.294h-74.381a5.7,5.7,0,0,0-.827,2.95v5.064a5.7,5.7,0,0,0,.827,2.95H2471.5a4.815,4.815,0,0,0,4.8-4.8V1757.1A4.815,4.815,0,0,0,2471.5,1752.294Z" transform="translate(-2093.101 -1468.055)" fill="#f2e5de"/>
  <path id="Rectangle_8" data-name="Rectangle 8" d="M2,0H59.554a5.013,5.013,0,0,1,5.013,5.013v0a5.013,5.013,0,0,1-5.013,5.013H2a2,2,0,0,1-2-2V2A2,2,0,0,1,2,0Z" transform="translate(320.835 271.408)" fill="#7bcee8"/>
  <path id="Path_156" data-name="Path 156" d="M2493.1,1726.026h-56.014a2.964,2.964,0,0,0-.623,1.785v3.064a2.963,2.963,0,0,0,.623,1.785H2493.1c1.989,0,3.616-1.307,3.616-2.9v-.824C2496.719,1727.333,2495.092,1726.026,2493.1,1726.026Z" transform="translate(-2116.246 -1452.922)" fill="#f2e5de"/>
  <g id="Group_52" data-name="Group 52" transform="translate(325.906 34.896)">
    <path id="Path_157" data-name="Path 157" d="M2516,1197.848h-63.538c-2.026,0-3.08-1.658-2.343-3.683l9.608-26.4a5.847,5.847,0,0,1,5.024-3.683h63.539c2.025,0,3.08,1.658,2.343,3.683l-9.608,26.4A5.846,5.846,0,0,1,2516,1197.848Z" transform="translate(-2449.88 -1164.084)" fill="#9ec8ff"/>
    <path id="Path_158" data-name="Path 158" d="M2519.971,1198.841h-57.218c-1.755,0-2.668-1.436-2.03-3.191l7.957-21.859a5.062,5.062,0,0,1,4.351-3.19h57.219c1.755,0,2.668,1.435,2.029,3.19l-7.956,21.859A5.065,5.065,0,0,1,2519.971,1198.841Z" transform="translate(-2456.009 -1167.839)" fill="#fff"/>
    <path id="Path_159" data-name="Path 159" d="M2497.262,1240.115c-5.269,13.915-13.381,18.212-13.381,18.212s5.769-7.98,4.934-11.868a8.563,8.563,0,0,0-3.924-5.526Z" transform="translate(-2469.468 -1207.885)" fill="#9ec8ff"/>
    <path id="Path_160" data-name="Path 160" d="M2560.437,1185.886h-36.884a.746.746,0,0,1-.7-1.1l.019-.052a1.747,1.747,0,0,1,1.5-1.1h36.885a.745.745,0,0,1,.7,1.1l-.019.052A1.746,1.746,0,0,1,2560.437,1185.886Z" transform="translate(-2491.879 -1175.347)" fill="#9ec8ff"/>
    <path id="Path_161" data-name="Path 161" d="M2556.4,1196.988h-36.885a.746.746,0,0,1-.7-1.1l.018-.051a1.747,1.747,0,0,1,1.5-1.1h36.885a.746.746,0,0,1,.7,1.1l-.019.051A1.745,1.745,0,0,1,2556.4,1196.988Z" transform="translate(-2489.552 -1181.743)" fill="#9ec8ff"/>
    <path id="Path_162" data-name="Path 162" d="M2551.828,1209.54h-36.885a.746.746,0,0,1-.7-1.1l.019-.051a1.745,1.745,0,0,1,1.5-1.1h36.885a.746.746,0,0,1,.7,1.1l-.019.051A1.745,1.745,0,0,1,2551.828,1209.54Z" transform="translate(-2486.919 -1188.974)" fill="#9ec8ff"/>
    <path id="Path_163" data-name="Path 163" d="M2494.133,1188c-1.46,4.012-5.3,7.264-8.578,7.264s-4.75-3.253-3.291-7.264,5.3-7.265,8.579-7.265S2495.594,1183.991,2494.133,1188Z" transform="translate(-2468.212 -1173.678)" fill="#9ec8ff"/>
  </g>
  <g id="Group_53" data-name="Group 53" transform="translate(351.916 132.312)">
    <path id="Path_164" data-name="Path 164" d="M2515.229,1398.893h-3.149a.814.814,0,0,1-.765-1.2l.944-2.594a1.9,1.9,0,0,1,1.642-1.2h3.148a.815.815,0,0,1,.766,1.2l-.944,2.594A1.9,1.9,0,0,1,2515.229,1398.893Z" transform="translate(-2511.237 -1393.892)" fill="#9ec8ff"/>
    <path id="Path_165" data-name="Path 165" d="M2539.063,1398.893h-3.149a.815.815,0,0,1-.766-1.2l.944-2.594a1.906,1.906,0,0,1,1.642-1.2h3.149a.815.815,0,0,1,.766,1.2l-.944,2.594A1.9,1.9,0,0,1,2539.063,1398.893Z" transform="translate(-2524.968 -1393.892)" fill="#9ec8ff"/>
    <path id="Path_166" data-name="Path 166" d="M2562.9,1398.893h-3.148a.814.814,0,0,1-.766-1.2l.943-2.594a1.9,1.9,0,0,1,1.643-1.2h3.149a.814.814,0,0,1,.766,1.2l-.944,2.594A1.9,1.9,0,0,1,2562.9,1398.893Z" transform="translate(-2538.699 -1393.892)" fill="#9ec8ff"/>
  </g>
  <g id="Group_54" data-name="Group 54" transform="translate(249.758 83.599)">
    <path id="Path_167" data-name="Path 167" d="M2336.359,1312.739h-63.538c-2.026,0-3.08-1.657-2.343-3.684l9.607-26.4a5.848,5.848,0,0,1,5.024-3.683h63.538c2.026,0,3.081,1.657,2.343,3.683l-9.607,26.4A5.848,5.848,0,0,1,2336.359,1312.739Z" transform="translate(-2270.243 -1278.975)" fill="#9ec8ff"/>
    <path id="Path_168" data-name="Path 168" d="M2340.334,1313.73h-57.219c-1.755,0-2.668-1.435-2.03-3.19l7.956-21.859a5.065,5.065,0,0,1,4.352-3.191h57.219c1.755,0,2.668,1.436,2.029,3.191l-7.956,21.859A5.065,5.065,0,0,1,2340.334,1313.73Z" transform="translate(-2276.372 -1282.729)" fill="#fff"/>
    <path id="Path_169" data-name="Path 169" d="M2281.026,1355.005c-4.86,13.915.124,18.212.124,18.212s.04-7.98,3.706-11.869a24.037,24.037,0,0,1,7.945-5.526Z" transform="translate(-2275.229 -1322.776)" fill="#9ec8ff"/>
    <path id="Path_170" data-name="Path 170" d="M2341.235,1305.121H2310.11a.687.687,0,0,1-.644-1.013l.082-.225a1.608,1.608,0,0,1,1.381-1.013h31.125a.687.687,0,0,1,.644,1.013l-.082.225A1.609,1.609,0,0,1,2341.235,1305.121Z" transform="translate(-2292.802 -1292.741)" fill="#9ec8ff"/>
    <path id="Path_171" data-name="Path 171" d="M2337.193,1316.224h-31.124a.687.687,0,0,1-.644-1.013l.082-.225a1.609,1.609,0,0,1,1.382-1.013h31.124a.687.687,0,0,1,.645,1.013l-.082.225A1.607,1.607,0,0,1,2337.193,1316.224Z" transform="translate(-2290.474 -1299.137)" fill="#9ec8ff"/>
    <path id="Path_172" data-name="Path 172" d="M2332.626,1328.774H2301.5a.687.687,0,0,1-.645-1.013l.082-.225a1.609,1.609,0,0,1,1.382-1.013h31.125a.687.687,0,0,1,.645,1.013l-.083.225A1.607,1.607,0,0,1,2332.626,1328.774Z" transform="translate(-2287.842 -1306.367)" fill="#9ec8ff"/>
    <path id="Path_173" data-name="Path 173" d="M2477.507,1426.045h-61.325c-1.1,0-1.669-.456-1.27-1.013l.162-.225a3.766,3.766,0,0,1,2.722-1.013h61.325c1.1,0,1.668.455,1.269,1.013l-.162.225A3.768,3.768,0,0,1,2477.507,1426.045Z" transform="translate(-2353.513 -1362.406)" fill="#9ec8ff"/>
    <path id="Path_174" data-name="Path 174" d="M2469.545,1444.389h-61.325c-1.1,0-1.669-.456-1.269-1.013l.162-.225a3.769,3.769,0,0,1,2.722-1.013h61.325c1.1,0,1.669.456,1.269,1.013l-.161.225A3.769,3.769,0,0,1,2469.545,1444.389Z" transform="translate(-2348.926 -1372.974)" fill="#9ec8ff"/>
    <path id="Path_175" data-name="Path 175" d="M2400.383,1313.652h-4.5c-2.026,0-3.08-1.657-2.344-3.683l3.352-9.208a5.847,5.847,0,0,1,5.024-3.684h4.5c2.026,0,3.08,1.657,2.343,3.684l-3.352,9.208A5.847,5.847,0,0,1,2400.383,1313.652Z" transform="translate(-2341.138 -1289.404)" fill="#9ec8ff"/>
  </g>
  <g id="Group_64" data-name="Group 64" transform="translate(413.754 41.273)">
    <path id="Path_176" data-name="Path 176" d="M2709.42,1503.452c8.172-44.844,6.383-60.883-15.507-97.486s-23.979-104.72-32.231-84.741-7.141,70.149,18.72,94.5,29.341,35.249,30.877,45.16-3.693,40.368-3.693,40.368Z" transform="translate(-2657.116 -1258.918)" fill="#9cd499"/>
    <path id="Path_177" data-name="Path 177" d="M2713.514,1474.608c.013-.172.025-.342.037-.514-.48-3.679-3.078-22.6-6.672-30.066-3.99-8.288-21.486-22.714-26.4-40.824s-12.7-32.147-17.8-43.587c-6.743-15.1-3.057-35.184,2.518-41.707a1.37,1.37,0,0,0-.408-.187l-1.852,1.119a13.134,13.134,0,0,0-1.256,2.437c-8.25,19.979-7.141,70.149,18.719,94.5s29.342,35.249,30.878,45.16a58.082,58.082,0,0,1,0,11.5Z" transform="translate(-2657.116 -1258.973)" fill="#74b570"/>
    <path id="Path_178" data-name="Path 178" d="M2742.013,1415.75c6.081-52.7,4.054-70.94-7.7-113.1s64.86-138.232,62.428-121.612-10.54,57.968-31.619,83.912-22.7,47.023-18.647,69.319-.811,74.183-.811,74.183l-2.432,9.324Z" transform="translate(-2700.881 -1179.128)" fill="#9cd499"/>
    <g id="Group_55" data-name="Group 55" transform="translate(35.934 5.903)">
      <path id="Path_179" data-name="Path 179" d="M2749.884,1401.875h-.02a.508.508,0,0,1-.489-.528c.006-.163.609-16.408.306-29.743s-3.92-36.219-6.12-44.075c-2-7.154-4.523-31.145,7.707-55.92,6.092-12.34,10.954-20.142,17.684-30.941,6.652-10.673,14.93-23.956,28.064-47.354a.509.509,0,0,1,.887.5c-13.145,23.419-21.429,36.713-28.087,47.394-6.714,10.774-11.566,18.558-17.636,30.854-12.089,24.488-9.614,48.146-7.64,55.2,2.214,7.9,5.853,30.908,6.158,44.326.3,13.366-.3,29.642-.307,29.8A.509.509,0,0,1,2749.884,1401.875Z" transform="translate(-2741.886 -1193.054)" fill="#74b570"/>
    </g>
    <path id="Path_180" data-name="Path 180" d="M2739.986,1572.712c3.648-35.267,4.259-17.875-10.893-65.793-17.341-54.844,44.539-103.533,54.673-83.67s21.891,82.291,17.431,80.264-34.051-60-34.862-57.563-40.132,22.7-38.51,43.375,16.62,53.509,16.62,53.509l-.405,30.282Z" transform="translate(-2696.826 -1317.157)" fill="#9cd499"/>
    <g id="Group_56" data-name="Group 56" transform="translate(28.711 101.057)">
      <path id="Path_181" data-name="Path 181" d="M2743.349,1572.017l-.051,0-4.054-.406a.509.509,0,0,1-.455-.559c.422-4.074.811-7.506,1.124-10.263,1.7-14.973,1.7-14.973-2.95-27.8-2.1-5.8-4.976-13.734-9.045-26.6a65.565,65.565,0,0,1-2.337-29.645,75.988,75.988,0,0,1,9.036-25.954c8.026-14.345,20.657-26.665,32.18-31.388,8.007-3.282,14.106-2.214,16.732,2.931,4.3,8.432,9.445,25.7,13.758,46.18,2.49,11.823,6.147,32.411,4.07,34.584a.9.9,0,0,1-1.06.194c-2.433-1.107-10.488-15.32-21.6-35.279-5.572-10.006-11.322-20.333-12.874-22.113a41.249,41.249,0,0,1-5.476,4c-11.014,7.47-33.933,23.016-32.7,38.7,1.6,20.346,16.426,53.01,16.575,53.338a.507.507,0,0,1,.046.218l-.406,29.363a.509.509,0,0,1-.508.5Zm-3.5-1.37,2.995.3.4-28.694c-.935-2.07-15.053-33.63-16.617-53.576-1.276-16.271,21.974-32.041,33.147-39.62,2.654-1.8,5.162-3.5,5.394-3.97a.592.592,0,0,1,.507-.406c.983-.092,2.927,3.109,13.909,22.833,7.882,14.155,18.654,33.5,21.08,34.821.187-.3.738-1.967-.334-10.526-.776-6.189-2.2-14.333-4-22.928-4.3-20.475-9.426-37.7-13.7-46.089-2.355-4.615-7.983-5.509-15.44-2.452-20.207,8.282-51.167,45.029-38.295,85.738,4.062,12.848,6.934,20.776,9.031,26.564,4.729,13.052,4.729,13.052,3,28.261C2740.608,1563.679,2740.253,1566.81,2739.853,1570.647Z" transform="translate(-2724.847 -1417.525)" fill="#74b570"/>
    </g>
    <path id="Path_182" data-name="Path 182" d="M2752.119,1714.724h-18.4c-1.265,0-2.4-.719-2.514-1.614l-6.181-46.47a3.3,3.3,0,0,1,3.158-3.95h29.471a3.3,3.3,0,0,1,3.158,3.95l-6.181,46.47C2754.513,1714.005,2753.383,1714.724,2752.119,1714.724Z" transform="translate(-2696.219 -1457.707)" fill="#7bcee8"/>
    <path id="Path_183" data-name="Path 183" d="M2777.13,1719.834H2774.5c-1.288,0-2.325-.746-2.3-1.674l.931-40.141a3.748,3.748,0,0,1,3.637-3.677h4a3.214,3.214,0,0,1,3.161,3.677l-4.268,40.141C2779.552,1719.088,2778.419,1719.834,2777.13,1719.834Z" transform="translate(-2723.412 -1464.42)" fill="#a2dff2"/>
    <g id="Group_57" data-name="Group 57" transform="translate(31.61 127.864)">
      <path id="Path_184" data-name="Path 184" d="M2734.184,1610.35l.325-.566a116.4,116.4,0,0,1-2.824-12.592A64.191,64.191,0,0,0,2734.184,1610.35Z" transform="translate(-2731.685 -1547.838)" fill="#74b570"/>
      <path id="Path_185" data-name="Path 185" d="M2734.421,1509.307a37.854,37.854,0,0,0-2.325,9.179c5.43-17.826,35.668-33.919,37.633-36.633l.349-.683C2758.72,1478,2740.559,1493.96,2734.421,1509.307Z" transform="translate(-2731.922 -1480.764)" fill="#74b570"/>
    </g>
    <g id="Group_58" data-name="Group 58" transform="translate(32.372 109.092)">
      <path id="Path_186" data-name="Path 186" d="M2805.51,1512.645a.509.509,0,0,1-.494-.387l-5.494-22.354c-4.291-17.516-9.63-39.316-15.624-49.02-.988-1.6-5.3-3.764-11.418-3.332-8.263.585-24.19,6.293-38.022,37.953a.509.509,0,1,1-.933-.407c14.047-32.151,30.39-37.96,38.883-38.561,6.606-.464,11.2,1.948,12.355,3.813,6.079,9.84,11.215,30.811,15.747,49.312l5.494,22.353a.507.507,0,0,1-.495.63Z" transform="translate(-2733.483 -1436.48)" fill="#74b570"/>
    </g>
    <g id="Group_59" data-name="Group 59" transform="translate(85.013 117.019)">
      <path id="Path_187" data-name="Path 187" d="M2860.938,1494.258a.467.467,0,0,1-.06,0,.509.509,0,0,1-.447-.564,119.572,119.572,0,0,0-2.75-37.879.509.509,0,0,1,.987-.247,120.692,120.692,0,0,1,2.774,38.244A.509.509,0,0,1,2860.938,1494.258Z" transform="translate(-2857.666 -1455.179)" fill="#74b570"/>
    </g>
    <g id="Group_60" data-name="Group 60" transform="translate(82.098 112.721)">
      <path id="Path_188" data-name="Path 188" d="M2851.3,1477.06a.511.511,0,0,1-.506-.568c.02-.168,1.972-16.992.612-30.893a.509.509,0,0,1,1.013-.1c1.371,14.012-.595,30.942-.615,31.111A.509.509,0,0,1,2851.3,1477.06Z" transform="translate(-2850.788 -1445.04)" fill="#74b570"/>
    </g>
    <g id="Group_61" data-name="Group 61" transform="translate(62.76 30.46)">
      <path id="Path_189" data-name="Path 189" d="M2805.677,1275.022a.509.509,0,0,1-.22-.967,58.024,58.024,0,0,0,23.1-22.8.508.508,0,1,1,.9.482,59.1,59.1,0,0,1-23.556,23.238A.5.5,0,0,1,2805.677,1275.022Z" transform="translate(-2805.168 -1250.984)" fill="#74b570"/>
    </g>
    <g id="Group_62" data-name="Group 62" transform="translate(52.017 57.778)">
      <path id="Path_190" data-name="Path 190" d="M2780.334,1330.565a.509.509,0,0,1-.1-1.007c.119-.024,12.031-2.577,26.18-14.017a.509.509,0,0,1,.64.791c-14.357,11.608-26.494,14.2-26.615,14.223A.51.51,0,0,1,2780.334,1330.565Z" transform="translate(-2779.826 -1315.428)" fill="#74b570"/>
    </g>
    <g id="Group_63" data-name="Group 63" transform="translate(42.808 80.185)">
      <path id="Path_191" data-name="Path 191" d="M2758.942,1378.828c-.208,0-.333-.007-.369-.01a.509.509,0,1,1,.075-1.015c.081.006,8.292.453,21.45-9.415a.509.509,0,0,1,.611.814C2768.627,1378.265,2760.719,1378.828,2758.942,1378.828Z" transform="translate(-2758.102 -1368.287)" fill="#74b570"/>
    </g>
  </g>
</svg>
