<svg id="Personal_Info" data-name="Personal Info" xmlns="http://www.w3.org/2000/svg" width="504.221" height="284.703" viewBox="0 0 504.221 284.703">
  <path id="Path_192" data-name="Path 192" d="M303.253,1320.85s-105.1-189.285-26.429-233.453c62.768-35.238,117.827,26.429,185-16.518,86.662-55.406,152.358-18.313,199.316,50.655,35.238,51.756,53.9,85.235,71.577,125.536,27.53,62.768-30.833,77.083-30.833,77.083Z" transform="translate(-235.876 -1044.058)" fill="#234de8"/>
  <path id="Path_193" data-name="Path 193" d="M1077.571,1763.19l-47.917.087a1.661,1.661,0,0,1-.146-3.2l47.725-4.286c3.875-.348,7.4,1.152,7.505,3.365S1081.462,1763.183,1077.571,1763.19Z" transform="translate(-719.793 -1485.163)" fill="#75a1de"/>
  <g id="Group_68" data-name="Group 68" transform="translate(230.693 242.52)">
    <path id="Path_194" data-name="Path 194" d="M888.579,1710.666c1.652-.413,4.68-9.452,4.68-9.452s-34.6-11.667-49.279-19.271l-20.445,23.649C849.8,1712.134,887.354,1710.972,888.579,1710.666Z" transform="translate(-823.535 -1681.943)" fill="#f09959"/>
    <path id="Path_195" data-name="Path 195" d="M976.727,1718.666c8.516,2.2,22.063-3.3,24.6-2.753s13.118,6.056,15.65,8.809,11.507,11.288,9.9,11.838-12.889-7.708-14.269-7.983-2.071,1.652-13.349,3.854-24.91-3.487-24.91-3.487Z" transform="translate(-917.006 -1702.974)" fill="#f09959"/>
    <path id="Path_196" data-name="Path 196" d="M1016.252,1741.076s13.119-3.3,14.73-2.753,11.392,2.753,18.182,10.461c-6.444-1.927-15.65-2.478-18.182-2.478S1016.252,1741.076,1016.252,1741.076Z" transform="translate(-942.982 -1716.849)" fill="#e38540"/>
    <path id="Path_197" data-name="Path 197" d="M989.371,1731.183c5.6,7.158,19.823,9.36,21.977,11.837s-5.18,1.426-9.05,1.1c-9.849-.826-16.729,3.166-24.7.688s-9.773-8.4-9.773-8.4Z" transform="translate(-912.966 -1712.462)" fill="#f09959"/>
  </g>
  <path id="Path_198" data-name="Path 198" d="M664.565,1395.305c-25.268,12.416-36.831,21.5-44.676,55.361s-8.258,66.068-4.129,90.017c28.047.814,108.434,3.843,108.434,3.843s-1.531-49.172-9.745-88.08c-7.846-37.163-18.995-51.616-28.492-58.223S664.565,1395.305,664.565,1395.305Z" transform="translate(-462.457 -1261.127)" fill="#a2dff2"/>
  <path id="Path_199" data-name="Path 199" d="M670.686,1539.859c-9.058-9.083-6.607-70.61-21.472-98.276L621.547,1493.2l-8.364,42.947A194.716,194.716,0,0,0,615.766,1570a1.1,1.1,0,0,0,1.183.9c22.839-2,24.112-11.926,97.065-22.938C715.736,1547.708,676.849,1546.04,670.686,1539.859Z" transform="translate(-462.463 -1290.446)" fill="#96cfe0"/>
  <path id="Path_200" data-name="Path 200" d="M740.688,1395.2c-3.2,7.47,3.3,17.252,13.581,24.96s16.518,3.487,15.967-2.569-1.1-12.48-3.487-16.335-21.473-7.157-21.473-7.157S741.238,1393.916,740.688,1395.2Z" transform="translate(-540.984 -1261.01)" fill="#fff"/>
  <path id="Path_201" data-name="Path 201" d="M757.219,1298.525l-9.8,37.431a8.578,8.578,0,0,0,.714,7.6c3.991,6.446,12.576,18.831,18.721,17.193,8.259-2.2,2.753-17.619,2.753-17.619l11.012-38.82Z" transform="translate(-545.311 -1201.778)" fill="#f09959"/>
  <path id="Path_202" data-name="Path 202" d="M792.878,1298.149l-9.784-3.96-2.939,7.641c1.348,32.534,5.493,45.812,11.856,49.513.342-5.018-1.759-10.9-1.759-10.9l7.984-28.909Z" transform="translate(-565.955 -1199.091)" fill="#e38540"/>
  <path id="Path_203" data-name="Path 203" d="M820.615,1294.954c-1.908,12.921-7,23.991-16.228,22.628s-25.074-12.176-23.166-25.1,22.624-28.393,31.853-27.03S822.523,1282.033,820.615,1294.954Z" transform="translate(-566.518 -1181.229)" fill="#f09959"/>
  <path id="Path_204" data-name="Path 204" d="M611.331,1465.331c.736-2.934-11.017-4.688-12.887-2.31-18.49,23.515-47.25,87.042-40.793,98.522,7.433,13.214,87.51-4.139,89.162-4.552s-2.891-12.8-2.891-12.8-44.874.826-52.444-4.267C615.015,1495.739,605.755,1487.567,611.331,1465.331Z" transform="translate(-427.471 -1303.045)" fill="#f09959"/>
  <path id="Path_205" data-name="Path 205" d="M622.436,1434.974c-19.423,8.707-40.467,65.243-40.467,65.243s4.955,1.239,21.059,6.607c6.694,2.231,13.181,4.3,13.181,4.3s15.416-20.005,20.266-35.683C642.722,1455.245,634.411,1429.606,622.436,1434.974Z" transform="translate(-443.118 -1285.902)" fill="#a2dff2"/>
  <g id="Group_69" data-name="Group 69" transform="translate(140.934 199.163)">
    <path id="Path_206" data-name="Path 206" d="M587.447,1586.812c18.166,2.343,29.022,8.668,34.538,12.989.829-1.153,1.832-2.577,2.941-4.206a45.042,45.042,0,0,0-24.224-11.656c-4.909-.686-8.646-1.129-11.484-1.413C588.547,1584.118,587.954,1585.559,587.447,1586.812Z" transform="translate(-587.447 -1576.967)" fill="#fff"/>
    <path id="Path_207" data-name="Path 207" d="M596.935,1567.9q-.467,1.059-.9,2.066c15.957-.638,31.268,7.135,35.134,11.88l1.211,1.486q.6-.92,1.219-1.892c-2.618-2.578-7.267-6.717-11.973-8.771C611.988,1568.47,598.176,1567.944,596.935,1567.9Z" transform="translate(-592.767 -1567.904)" fill="#fff"/>
  </g>
  <path id="Path_208" data-name="Path 208" d="M841.7,1658.915H821.326l-3.028-38.038H845Z" transform="translate(-589.596 -1401.574)" fill="#75a1de"/>
  <path id="Path_209" data-name="Path 209" d="M765.871,1658.08c5.644-.138,14.866-6.607,18.032-8.4s21.06-5.644,21.886-3.716-15,5.919-15,5.919l11.838.551s3.441,5.231,3.716,8.672a30.374,30.374,0,0,1-1.1,8.4l-5.23-4.68s-4.267,2.34-9.636,5.506-15,1.239-19.133.413-13.765-3.854-13.765-3.854Z" transform="translate(-551.897 -1416.799)" fill="#f09959"/>
  <path id="Path_210" data-name="Path 210" d="M585.5,1659.685s9.131-5.276,18.308-3.992c5.259.736,5.829,1.594,5.505,1.377q1.705-3.2,3.184-6.153C607.716,1651.139,595.46,1652.432,585.5,1659.685Z" transform="translate(-445.307 -1420.193)" fill="#e38540"/>
  <path id="Path_211" data-name="Path 211" d="M1290.874,1503.453v93.739c0,3.117-2.937,5.643-6.561,5.643h-19.682c-3.358,0-6.081,2.342-6.081,5.231h28.324c6.1,0,11.041-4.252,11.041-9.5v-95.116Z" transform="translate(-862.467 -1328.794)" fill="#6791c9"/>
  <path id="Path_212" data-name="Path 212" d="M1295.706,1547.876l-3.125-.595a3.342,3.342,0,0,1-2.919-3.939l24.494-95.151a3.9,3.9,0,0,1,4.58-2.511l3.125.6a3.342,3.342,0,0,1,2.919,3.939l-24.494,95.151A3.9,3.9,0,0,1,1295.706,1547.876Z" transform="translate(-881.694 -1292.937)" fill="#95bef5"/>
  <path id="Path_213" data-name="Path 213" d="M1303.563,1549.189l-.368-.069a2.582,2.582,0,0,1-2.255-3.043l24.872-96.62a3.01,3.01,0,0,1,3.537-1.94l.368.07a2.582,2.582,0,0,1,2.255,3.043L1307.1,1547.25A3.01,3.01,0,0,1,1303.563,1549.189Z" transform="translate(-888.698 -1294.087)" fill="#75a1de"/>
  <path id="Path_214" data-name="Path 214" d="M787.819,1781.4H367.088a3.525,3.525,0,0,1,0-7.049H787.819a3.525,3.525,0,0,1,0,7.049Z" transform="translate(-307.75 -1496.699)" fill="#2e5b9a"/>
  <path id="Path_215" data-name="Path 215" d="M765.617,1256.072c-19.064,11.825-7,24.614-12.065,46.573,3.114,1.066,6.515-5.068,8.687-9.894s4.1-11.825,4.826-11.583,1.93,11.1,1.93,11.1l2.9,1.448s4.1-7.24,3.861-8.929-3.62-9.894.483-13.755c2.635-2.481,13.513,2.9,13.513,2.9l-10.618-15.2Z" transform="translate(-549.466 -1175.466)" fill="#f09959"/>
  <path id="Path_216" data-name="Path 216" d="M765.617,1256.072c-19.064,11.825-7,24.614-12.065,46.573,3.114,1.066,6.515-5.068,8.687-9.894s4.1-11.825,4.826-11.583,1.93,11.1,1.93,11.1l2.9,1.448s4.1-7.24,3.861-8.929-3.62-9.894.483-13.755c2.635-2.481,13.513,2.9,13.513,2.9l-10.618-15.2Z" transform="translate(-549.466 -1175.466)" fill="#2e5b9a" opacity="0.5"/>
  <path id="Path_217" data-name="Path 217" d="M806.034,1250.271c-.965,11.583-18.92,7.959-27.268-2.413-7.964-9.894-14.515-3.074-22.442.241-13.272,5.55,1.689-26.544,28.475-21.477C804.9,1230.425,806.677,1242.561,806.034,1250.271Z" transform="translate(-548.136 -1156.875)" fill="#2e5b9a"/>
  <path id="Path_218" data-name="Path 218" d="M773.156,1310.8c.823,4.32-.791,8.257-3.605,8.794s-5.764-2.531-6.588-6.851.791-8.257,3.605-8.794S772.332,1306.477,773.156,1310.8Z" transform="translate(-555.166 -1205.101)" fill="#f09959"/>
  <g id="Group_87" data-name="Group 87" transform="translate(325.906 73.501)">
    <path id="Rectangle_9" data-name="Rectangle 9" d="M5.074,0h86.89a5.074,5.074,0,0,1,5.074,5.074V52.736a5.074,5.074,0,0,1-5.074,5.074H5.073A5.073,5.073,0,0,1,0,52.737V5.074A5.074,5.074,0,0,1,5.074,0Z" fill="#9ec8ff"/>
    <rect id="Rectangle_10" data-name="Rectangle 10" width="91.09" height="46.741" rx="4.42" transform="translate(2.974 9.297)" fill="#fff"/>
    <g id="Group_70" data-name="Group 70" transform="translate(4.009 3.264)">
      <path id="Rectangle_11" data-name="Rectangle 11" d="M1.628,0H1.99A1.628,1.628,0,0,1,3.617,1.628v0A1.628,1.628,0,0,1,1.99,3.255H1.628A1.628,1.628,0,0,1,0,1.628v0A1.628,1.628,0,0,1,1.628,0Z" fill="#fff"/>
      <path id="Rectangle_12" data-name="Rectangle 12" d="M1.628,0H1.99A1.628,1.628,0,0,1,3.617,1.628v0A1.628,1.628,0,0,1,1.99,3.255H1.628A1.628,1.628,0,0,1,0,1.628v0A1.628,1.628,0,0,1,1.628,0Z" transform="translate(6.577)" fill="#fff"/>
      <path id="Rectangle_13" data-name="Rectangle 13" d="M1.628,0h.362A1.628,1.628,0,0,1,3.617,1.628v0A1.628,1.628,0,0,1,1.989,3.255H1.627A1.627,1.627,0,0,1,0,1.628v0A1.628,1.628,0,0,1,1.628,0Z" transform="translate(13.153)" fill="#fff"/>
    </g>
    <g id="Group_82" data-name="Group 82" transform="translate(6.063 12.052)">
      <g id="Group_71" data-name="Group 71">
        <path id="Path_219" data-name="Path 219" d="M1174.828,1310.316h-84.912v-41.232h84.912Zm-84.608-.3h84.3v-40.623h-84.3Z" transform="translate(-1089.916 -1269.084)" fill="#9ec8ff"/>
      </g>
      <g id="Group_72" data-name="Group 72" transform="translate(0.152 32.742)">
        <rect id="Rectangle_14" data-name="Rectangle 14" width="84.608" height="0.304" fill="#9ec8ff"/>
      </g>
      <g id="Group_73" data-name="Group 73" transform="translate(0.152 24.556)">
        <rect id="Rectangle_15" data-name="Rectangle 15" width="84.608" height="0.304" fill="#9ec8ff"/>
      </g>
      <g id="Group_74" data-name="Group 74" transform="translate(0.152 16.371)">
        <rect id="Rectangle_16" data-name="Rectangle 16" width="84.608" height="0.304" fill="#9ec8ff"/>
      </g>
      <g id="Group_75" data-name="Group 75" transform="translate(0.152 8.185)">
        <rect id="Rectangle_17" data-name="Rectangle 17" width="84.608" height="0.304" fill="#9ec8ff"/>
      </g>
      <g id="Group_76" data-name="Group 76" transform="translate(72.522 0.152)">
        <rect id="Rectangle_18" data-name="Rectangle 18" width="0.304" height="40.928" fill="#9ec8ff"/>
      </g>
      <g id="Group_77" data-name="Group 77" transform="translate(60.435 0.152)">
        <rect id="Rectangle_19" data-name="Rectangle 19" width="0.304" height="40.928" fill="#9ec8ff"/>
      </g>
      <g id="Group_78" data-name="Group 78" transform="translate(48.348 0.152)">
        <rect id="Rectangle_20" data-name="Rectangle 20" width="0.304" height="40.928" fill="#9ec8ff"/>
      </g>
      <g id="Group_79" data-name="Group 79" transform="translate(36.261 0.152)">
        <rect id="Rectangle_21" data-name="Rectangle 21" width="0.304" height="40.928" fill="#9ec8ff"/>
      </g>
      <g id="Group_80" data-name="Group 80" transform="translate(24.174 0.152)">
        <rect id="Rectangle_22" data-name="Rectangle 22" width="0.304" height="40.928" fill="#9ec8ff"/>
      </g>
      <g id="Group_81" data-name="Group 81" transform="translate(12.087 0.152)">
        <rect id="Rectangle_23" data-name="Rectangle 23" width="0.304" height="40.928" fill="#9ec8ff"/>
      </g>
    </g>
    <path id="Path_220" data-name="Path 220" d="M1296.676,1276.645h-2.845a1.973,1.973,0,1,1,0-3.946h2.845a1.973,1.973,0,1,1,0,3.946Z" transform="translate(-1209.018 -1259.273)" fill="#f39892"/>
    <path id="Rectangle_24" data-name="Rectangle 24" d="M1.972,0H4.818A1.973,1.973,0,0,1,6.791,1.973v0A1.972,1.972,0,0,1,4.818,3.946H1.973A1.973,1.973,0,0,1,0,1.973v0A1.972,1.972,0,0,1,1.972,0Z" transform="translate(82.84 29.944)" fill="#f39892"/>
    <path id="Rectangle_25" data-name="Rectangle 25" d="M2.913,0H6.446A2.914,2.914,0,0,1,9.36,2.914v0A2.913,2.913,0,0,1,6.447,5.827H2.914A2.914,2.914,0,0,1,0,2.913v0A2.913,2.913,0,0,1,2.913,0Z" transform="translate(19.522 21.548)" fill="#9ec8ff"/>
    <rect id="Rectangle_26" data-name="Rectangle 26" width="6.723" height="4.186" rx="2.093" transform="translate(20.84 22.368)" fill="#fff"/>
    <path id="Rectangle_27" data-name="Rectangle 27" d="M2.913,0H6.447A2.913,2.913,0,0,1,9.36,2.913v0A2.913,2.913,0,0,1,6.447,5.827H2.914A2.914,2.914,0,0,1,0,2.913v0A2.913,2.913,0,0,1,2.913,0Z" transform="translate(67.974 46.049)" fill="#9ec8ff"/>
    <path id="Rectangle_28" data-name="Rectangle 28" d="M2.093,0H4.631A2.093,2.093,0,0,1,6.723,2.093v0A2.093,2.093,0,0,1,4.63,4.186H2.093A2.093,2.093,0,0,1,0,2.093v0A2.093,2.093,0,0,1,2.093,0Z" transform="translate(69.292 46.87)" fill="#fff"/>
    <path id="Path_221" data-name="Path 221" d="M1202.633,1296.431H1197.4a.642.642,0,1,1,0-1.284h5.231a.642.642,0,0,1,0,1.284Z" transform="translate(-1150.076 -1273.186)" fill="#9ec8ff"/>
    <path id="Path_222" data-name="Path 222" d="M1202.633,1301.741H1197.4a.642.642,0,1,1,0-1.285h5.231a.642.642,0,0,1,0,1.285Z" transform="translate(-1150.076 -1276.477)" fill="#9ec8ff"/>
    <path id="Path_223" data-name="Path 223" d="M1172.221,1360.513h-5.231a.642.642,0,1,1,0-1.285h5.231a.642.642,0,0,1,0,1.285Z" transform="translate(-1131.226 -1312.904)" fill="#9ec8ff"/>
    <path id="Path_224" data-name="Path 224" d="M1172.221,1365.824h-5.231a.642.642,0,1,1,0-1.285h5.231a.642.642,0,0,1,0,1.285Z" transform="translate(-1131.226 -1316.196)" fill="#9ec8ff"/>
    <path id="Path_225" data-name="Path 225" d="M1100.9,1320.326h-5.231a.642.642,0,1,1,0-1.285h5.231a.642.642,0,0,1,0,1.285Z" transform="translate(-1087.019 -1287.996)" fill="#9ec8ff"/>
    <path id="Path_226" data-name="Path 226" d="M1100.9,1325.636h-5.231a.642.642,0,1,1,0-1.284h5.231a.642.642,0,1,1,0,1.284Z" transform="translate(-1087.019 -1291.288)" fill="#9ec8ff"/>
    <path id="Path_227" data-name="Path 227" d="M1233.769,1296.431h-5.231a.642.642,0,1,1,0-1.284h5.231a.642.642,0,1,1,0,1.284Z" transform="translate(-1169.374 -1273.186)" fill="#9ec8ff"/>
    <path id="Path_228" data-name="Path 228" d="M1233.769,1301.741h-5.231a.642.642,0,1,1,0-1.285h5.231a.642.642,0,1,1,0,1.285Z" transform="translate(-1169.374 -1276.477)" fill="#9ec8ff"/>
    <g id="Group_84" data-name="Group 84" transform="translate(19.384 38.113)">
      <path id="Rectangle_29" data-name="Rectangle 29" d="M2.959,0H7.228a2.958,2.958,0,0,1,2.958,2.958v0A2.958,2.958,0,0,1,7.228,5.917H2.958A2.958,2.958,0,0,1,0,2.959v0A2.959,2.959,0,0,1,2.959,0Z" fill="#9cd499"/>
      <g id="Group_83" data-name="Group 83" transform="translate(2.487 0.694)">
        <path id="Path_229" data-name="Path 229" d="M1133.554,1343.7h-.023a.612.612,0,0,1-.434-.206l-1.449-1.647a.608.608,0,1,1,.914-.8l1.025,1.165,2.638-2.582a.608.608,0,1,1,.851.87l-3.1,3.031A.609.609,0,0,1,1133.554,1343.7Z" transform="translate(-1131.496 -1339.454)" fill="#fff"/>
      </g>
    </g>
    <g id="Group_86" data-name="Group 86" transform="translate(55.586 13.198)">
      <path id="Rectangle_30" data-name="Rectangle 30" d="M2.959,0H7.228a2.958,2.958,0,0,1,2.958,2.958v0A2.958,2.958,0,0,1,7.228,5.917H2.958A2.958,2.958,0,0,1,0,2.959v0A2.959,2.959,0,0,1,2.959,0Z" fill="#9cd499"/>
      <g id="Group_85" data-name="Group 85" transform="translate(2.487 0.694)">
        <path id="Path_230" data-name="Path 230" d="M1228.773,1278.171h-.022a.611.611,0,0,1-.434-.206l-1.449-1.647a.608.608,0,0,1,.913-.8l1.026,1.166,2.638-2.582a.608.608,0,0,1,.851.87l-3.1,3.03A.607.607,0,0,1,1228.773,1278.171Z" transform="translate(-1226.715 -1273.924)" fill="#fff"/>
      </g>
    </g>
    <path id="Path_231" data-name="Path 231" d="M1231.109,1340.38a2.753,2.753,0,1,1-2.753-2.753A2.752,2.752,0,0,1,1231.109,1340.38Z" transform="translate(-1167.953 -1299.516)" fill="#9ec8ff"/>
    <path id="Path_232" data-name="Path 232" d="M1137.339,1362.465a2.753,2.753,0,1,1-2.753-2.753A2.753,2.753,0,0,1,1137.339,1362.465Z" transform="translate(-1109.834 -1313.204)" fill="#9ec8ff"/>
  </g>
  <g id="Group_88" data-name="Group 88" transform="translate(312.224 122.944)">
    <path id="Rectangle_31" data-name="Rectangle 31" d="M2.509,0H55.6a2.508,2.508,0,0,1,2.508,2.508v28.21A2.509,2.509,0,0,1,55.6,33.227H2.509A2.509,2.509,0,0,1,0,30.718V2.509A2.509,2.509,0,0,1,2.509,0Z" transform="translate(0)" fill="#9ec8ff"/>
    <path id="Rectangle_32" data-name="Rectangle 32" d="M2.342,0H53.215a2.342,2.342,0,0,1,2.342,2.342V27.957A2.343,2.343,0,0,1,53.215,30.3H2.342A2.342,2.342,0,0,1,0,27.957V2.342A2.342,2.342,0,0,1,2.342,0Z" transform="translate(1.274 1.464)" fill="#fff"/>
    <rect id="Rectangle_33" data-name="Rectangle 33" width="52.487" height="26.586" rx="2.634" transform="translate(2.809 3.321)" fill="#9ec8ff"/>
    <circle id="Ellipse_11" data-name="Ellipse 11" cx="9.224" cy="9.224" r="9.224" transform="translate(19.829 7.389)" fill="#fff"/>
    <path id="Path_233" data-name="Path 233" d="M1109.392,1398.179a7.943,7.943,0,1,1-7.943-7.943A7.943,7.943,0,0,1,1109.392,1398.179Z" transform="translate(-1072.396 -1381.566)" fill="#9ec8ff"/>
    <path id="Path_234" data-name="Path 234" d="M1115.228,1404.546l-2.9,1.676-2.9,1.676v-6.705l2.9,1.677Z" transform="translate(-1082.26 -1388.357)" fill="#fff"/>
  </g>
  <path id="Path_235" data-name="Path 235" d="M966.352,1152.665H930.013a1.652,1.652,0,1,1,0-3.3h36.339a1.652,1.652,0,0,1,0,3.3Z" transform="translate(-657.814 -1109.325)" fill="#9ec8ff"/>
  <path id="Path_236" data-name="Path 236" d="M1216.166,1519.783h-36.34a1.652,1.652,0,0,1,0-3.3h36.34a1.652,1.652,0,0,1,0,3.3Z" transform="translate(-812.65 -1336.867)" fill="#9ec8ff"/>
  <path id="Path_237" data-name="Path 237" d="M1216.166,1535.713h-36.34a1.652,1.652,0,0,1,0-3.3h36.34a1.652,1.652,0,0,1,0,3.3Z" transform="translate(-812.65 -1346.741)" fill="#9ec8ff"/>
  <path id="Path_238" data-name="Path 238" d="M1216.166,1553.091h-36.34a1.652,1.652,0,0,1,0-3.3h36.34a1.652,1.652,0,0,1,0,3.3Z" transform="translate(-812.65 -1357.512)" fill="#9ec8ff"/>
  <path id="Path_239" data-name="Path 239" d="M989.752,1169.32h-59.74a1.652,1.652,0,1,1,0-3.3h59.74a1.652,1.652,0,1,1,0,3.3Z" transform="translate(-657.814 -1119.648)" fill="#9ec8ff"/>
  <path id="Path_240" data-name="Path 240" d="M375.284,1415.505c-9.5,8.672-5.368,17.343,1.652,33.447s8.259,75.565,8.259,75.565l-5.781-.826s.825-61.113-7.02-77.63-11.149-24.776-18.169-19.407S375.284,1415.505,375.284,1415.505Z" transform="translate(-301.263 -1274.283)" fill="#74b570"/>
  <path id="Path_241" data-name="Path 241" d="M296,1342.288c-1.154-5.139-8-10.7-17.163-15.416,1.362,7.579,5.728,19.972,1.209,22.514-6.095,3.428-.594-13.875-2.946-23.385a113.173,113.173,0,0,0-28.475-9.341c.014.036.024.069.038.1,5.368,13.627,12.387,18.995,9.5,21.059-2.175,1.553-9.258-14.187-18.611-22.256-7.021-.374-12.96.578-16.473,3.359-5.431,4.3-9.076,8.114-3.614,21.206a24.541,24.541,0,0,0,11.858,4.3c12.388,1.239,18.169,1.652,9.5,5.781-4.246,2.022-11.364-.114-17.135-1.415,1.872,3.449,4.173,7.354,6.969,11.8a43.833,43.833,0,0,0,5.8,7.386c3.992.765,7.473.774,9.316-.016,5.781-2.477,20.646-10.323,24.362-7.019,3.638,3.234-27.531,5.28-25.371,13.5,15.107,8.7,32.395,4.563,35.45-3.43C284.317,1360.282,299.47,1357.757,296,1342.288Z" transform="translate(-216.758 -1212.293)" fill="#9cd499"/>
  <path id="Path_242" data-name="Path 242" d="M343.028,1531.79c16.517-12.388,33.447-.826,42.119,12.388s2.478,42.944,2.478,42.944-3.3,0-3.3-1.238,9.084-35.1-12.388-50.377c-13.433-9.558-23.124-4.955-24.362-.413s5.368,12.8,5.368,12.8Z" transform="translate(-295.021 -1343.082)" fill="#74b570"/>
  <path id="Path_243" data-name="Path 243" d="M412.154,1473.429c-16.517,0-21.885,25.6-17.343,40.467s10.736,42.532,10.736,42.532l4.129-4.129s-15.691-38.815-11.975-56.158,12.8-20.234,14.452-20.234S412.154,1473.429,412.154,1473.429Z" transform="translate(-326.158 -1310.185)" fill="#9cd499"/>
  <path id="Path_244" data-name="Path 244" d="M399.424,1574.214a11.956,11.956,0,0,0-4.348-3.654,32.587,32.587,0,0,0,.858,3.538c2.069,6.774,4.482,16.2,6.5,24.463l.9-5.2c.1-.594.183-1.238.24-1.922A160.1,160.1,0,0,1,399.424,1574.214Z" transform="translate(-327.281 -1370.387)" fill="#74b570"/>
  <path id="Path_245" data-name="Path 245" d="M295.958,1542.541c-31.382-13.214-14.848-31.346-42.515-19.371-1.949.844-4.323,2.97-6.7,5.9a20.61,20.61,0,0,0,8.766.7c8.259-1.239,5.368,5.368-8.259,7.02a30.578,30.578,0,0,0-6.385,1.348c-6.492,12.468-9.417,28.874,4.321,34.577a31.143,31.143,0,0,0,9.777,2.006c4.24-3.37-1.034-22.866,5.5-20.175,6.275,2.584-1.966,16.714-.837,20.274a90.485,90.485,0,0,0,19.6-2.748c2.593-1.453,4.573-3.4,5.183-5.964,2.064-8.671-11.562-14.039-11.975-21.472-.379-6.833,4.995,15.032,19.232,18.25C304.544,1556.879,310.627,1548.718,295.958,1542.541Z" transform="translate(-228.33 -1338.591)" fill="#9cd499"/>
  <path id="Path_246" data-name="Path 246" d="M430.874,1470.245c-3.3-7.02,5.368-8.672,4.955-3.3-.366,4.756-.406,16.319,4.472,19.467a76.545,76.545,0,0,0,28.513-9.47,3.509,3.509,0,0,0-.364-2.152c-3.716-7.432-27.666-13.627-20.234-16.1,5.92-1.974,16.292,9.673,24.651,15.54,5.02-3.81,8.384-8.349,8.384-13.418,0-6.86-8.335-14.626-19.115-18.338-4.851.489-9.358,3.142-16.4,7.13-10.4,5.893-7.994-3.634,1.838-9.288a29.615,29.615,0,0,0-23.19,12.729s.59,3.7-3.329,9.431c-10.692,15.626,1.647,24.748,16.4,24.156C436.621,1482.507,433.156,1475.1,430.874,1470.245Z" transform="translate(-340.885 -1289.657)" fill="#9cd499"/>
  <path id="Path_247" data-name="Path 247" d="M285.247,1538.394c-8.075,6.24-17.046,13.535-28.057,18.491s-8.81,21.106-8.81,21.106-1.652-13.948,7.525-18.72,15.233-10.462,22.208-11.562a101.174,101.174,0,0,0,10.828-2.2s-2.2-4.4-.918-6.057S285.247,1538.394,285.247,1538.394Z" transform="translate(-236.246 -1350.385)" fill="#74b570"/>
  <path id="Path_248" data-name="Path 248" d="M240.95,1345.833c29.548,7.892,51.205,26.8,55.243,31.384s4.038,5.873,4.038,5.873l-3.12,5.873-1.468-.734s2.386-4.956-3.854-11.379c-10.761-11.078-23.859-19.822-32.853-23.675S240.95,1345.833,240.95,1345.833Z" transform="translate(-231.752 -1231.1)" fill="#74b570"/>
  <path id="Rectangle_34" data-name="Rectangle 34" d="M0,0H40.359a0,0,0,0,1,0,0V20.293a20.18,20.18,0,0,1-20.18,20.18h0A20.18,20.18,0,0,1,0,20.293V0A0,0,0,0,1,0,0Z" transform="translate(64.937 237.818)" fill="#f39892"/>
</svg>
